<svg version="1.1" xmlns="http://www.w3.org/2000/svg" xmlns:xlink="http://www.w3.org/1999/xlink" width="48" height="48"><defs><linearGradient x1="0" y1="0" x2="0" y2="0" gradientUnits="userSpaceOnUse" id="color-1"><stop offset="0" stop-color="#000000" stop-opacity="0.01"></stop><stop offset="1" stop-color="#000000" stop-opacity="0"></stop></linearGradient><filter id="dropshadow-base"><feColorMatrix type="matrix" values="0 0 0 0 0  0 0 0 0 0  0 0 0 0 0  0 0 0 .8 0"></feColorMatrix> <feOffset dx="0" dy="1"></feOffset> <feGaussianBlur stdDeviation="1"></feGaussianBlur> <feComposite in="SourceGraphic"></feComposite></filter><filter id="dropshadow-banner" x="-10%" y="-10%" width="120%" height="130%"><feColorMatrix type="matrix" values="0 0 0 0 0  0 0 0 0 0  0 0 0 0 0  0 0 0 .4 0"></feColorMatrix> <feOffset dx="0" dy="1"></feOffset> <feGaussianBlur stdDeviation="0.5"></feGaussianBlur> <feComposite in="SourceGraphic"></feComposite></filter></defs><g fill="none" fill-rule="nonzero" stroke="none" stroke-width="none" stroke-linecap="butt" stroke-linejoin="miter" stroke-miterlimit="10" stroke-dasharray="" stroke-dashoffset="0" font-family="none" font-weight="none" font-size="none" text-anchor="none" style="mix-blend-mode: normal"><path d="M2,24c0,-12.15026 9.84974,-22 22,-22c12.15026,0 22,9.84974 22,22c0,12.15026 -9.84974,22 -22,22c-12.15026,0 -22,-9.84974 -22,-22z" id="base 1 5" fill="#ffffff" stroke-width="1"></path><path d="" fill="url(#color-1)" stroke-width="1"></path><path d="M20.59013,34.32936c-0.48236,-0.51345 -0.53714,-1.53013 -0.11492,-2.13293c0.2052,-0.29297 0.47893,-0.41354 0.93881,-0.41354c0.94693,0 1.56259,-0.67681 1.56259,-1.71781c0,-1.1133 0.37876,-1.58175 1.40314,-1.73536c0.99996,-0.14995 1.38792,-0.604 1.38792,-1.62437c0,-0.90976 0.26627,-1.40389 0.88284,-1.63831c1.03167,-0.39224 1.90821,0.47699 1.90821,1.89227c0,0.6704 0.77056,1.28823 1.60669,1.28823c0.85742,0 1.37044,0.54784 1.37044,1.46347c0,0.95523 0.58047,1.69973 1.32524,1.69973c1.64124,0 2.4679,1.61982 1.38124,2.70648c-0.93956,0.93956 -2.05931,0.26807 -2.31776,-1.38991c-0.18129,-1.16302 -0.52219,-1.50264 -1.50828,-1.50264c-0.91993,0 -1.45574,-0.60062 -1.65385,-1.85389c-0.18009,-1.13921 -0.36983,-1.3026 -1.51717,-1.30645c-1.15869,-0.00389 -1.53914,0.31454 -1.58013,1.32252c-0.04767,1.17244 -0.04705,1.17027 -0.46294,1.61667c-0.24087,0.25855 -0.60153,0.40723 -0.98782,0.40723c-0.96683,0 -1.25227,0.33708 -1.40867,1.66354c-0.15184,1.28779 -0.46364,1.68573 -1.3208,1.68573c-0.27183,0 -0.67044,-0.19185 -0.89479,-0.43065zM17.6348,31.87229c-0.62162,-0.26137 -0.79851,-0.58452 -0.79851,-1.45875c0,-0.92866 -0.45042,-1.42171 -1.29877,-1.42171c-1.09425,0 -1.86443,-0.72513 -1.86443,-1.75537c0,-0.97367 -0.41734,-1.40783 -1.35329,-1.40783c-0.43952,0 -0.8505,-0.1529 -1.1855,-0.44106c-1.02691,-0.88331 -0.47317,-2.53606 0.84968,-2.53606c0.76387,0 1.26045,0.58728 1.40883,1.66615c0.15113,1.09888 0.57449,1.49705 1.59173,1.49705c0.89447,0 1.4796,0.61515 1.4796,1.55553c0,0.49813 0.13558,0.82981 0.47998,1.17421c0.42471,0.42471 0.57955,0.46633 1.34457,0.36148c1.06565,-0.14606 1.38513,-0.44736 1.44186,-1.35979c0.02421,-0.38942 0.05276,-0.8127 0.06344,-0.94063c0.03985,-0.47735 0.76337,-0.97687 1.41494,-0.97687c0.91901,0 1.39553,-0.53149 1.39553,-1.55651c0,-1.07772 0.54548,-1.79276 1.36763,-1.79276c0.96923,0 1.42343,-0.44411 1.42343,-1.3918c0,-1.14652 0.69118,-1.95747 1.66839,-1.95747c0.89718,0 1.15161,-0.31253 1.33108,-1.63503c0.16088,-1.18552 0.47372,-1.52817 1.39524,-1.52817c0.74429,0 1.37347,0.71705 1.37347,1.56529c0,0.91526 0.41753,1.34758 1.40942,1.45938c1.08614,0.12242 1.56524,0.58659 1.69925,1.6463c0.13795,1.09081 0.48491,1.43958 1.57615,1.58434c1.03376,0.13713 1.4555,0.5621 1.4555,1.46662c0,0.9079 -0.45731,1.39553 -1.30875,1.39553c-0.87329,0 -1.20963,-0.40662 -1.46441,-1.7704c-0.20157,-1.07896 -0.56486,-1.39279 -1.61227,-1.39279c-0.95709,0 -1.20701,-0.272 -1.40588,-1.53005c-0.20372,-1.28872 -0.50043,-1.54979 -1.70477,-1.50001c-1.20876,0.04997 -1.62136,0.47116 -1.62136,1.65515c0,1.01048 -0.47755,1.56099 -1.35413,1.56099c-1.02504,0 -1.43693,0.43214 -1.43693,1.50757c0,1.13234 -0.57334,1.8417 -1.48856,1.8417c-0.87975,0 -1.48856,0.71398 -1.48856,1.74571c0,0.67749 -0.09118,0.90399 -0.49027,1.21792c-0.27161,0.21365 -0.76483,0.38565 -1.10587,0.38565c-0.76022,0 -1.19492,0.54746 -1.19492,1.50487c0,0.74058 -0.51951,1.55614 -1.08555,1.70417c-0.19264,0.05037 -0.60078,-0.01375 -0.90699,-0.1425zM35.38055,31.21522c-0.3634,-0.28585 -0.51668,-0.61958 -0.61094,-1.33013c-0.15155,-1.14244 -0.58723,-1.63755 -1.44099,-1.63755c-0.94685,0 -1.56091,-0.58552 -1.71288,-1.63326c-0.19028,-1.31191 -0.33193,-1.4785 -1.37961,-1.62259c-1.56596,-0.21537 -2.21957,-1.61494 -1.22068,-2.61382c1.01145,-1.01145 2.33434,-0.11477 2.33434,1.58226c0,0.78182 0.37861,1.11826 1.44884,1.28744c1.12317,0.17755 1.51353,0.55631 1.52237,1.47713c0.00616,0.64271 0.28705,1.33185 0.6385,1.56652c0.1126,0.07519 0.63958,0.13799 1.17105,0.13955c1.18519,0.0035 1.54563,-0.39287 1.54563,-1.69968c0,-0.73002 0.08366,-0.94126 0.50364,-1.27161c0.9164,-0.72084 2.10135,-0.02413 2.10135,1.23554c0,0.86801 -0.68895,1.55253 -1.56259,1.55253c-0.82505,0 -1.22847,0.53576 -1.22847,1.63146c0,0.60593 -0.11267,0.91705 -0.45672,1.26109c-0.55678,0.55678 -1.01409,0.57757 -1.65284,0.07513zM4.85983,26.37334c-0.37816,-0.29746 -0.49027,-0.54966 -0.49027,-1.10292c0,-0.55326 0.11211,-0.80546 0.49027,-1.10292c0.6361,-0.50036 1.046,-0.48681 1.67638,0.05542c0.98985,0.85144 0.4806,2.53606 -0.76664,2.53606c-0.23071,0 -0.64009,-0.17354 -0.90974,-0.38565zM17.40401,25.93368c-0.52261,-0.28763 -0.72211,-0.69757 -0.74071,-1.522c-0.02051,-0.9089 -0.64438,-1.56017 -1.49453,-1.56017c-1.03067,0 -1.5117,-0.46884 -1.63023,-1.58894c-0.13059,-1.23403 -0.61617,-1.76033 -1.62414,-1.76033c-1.15833,0 -1.52778,0.35678 -1.62862,1.57278c-0.10242,1.235 -0.51509,1.77649 -1.35388,1.77649c-0.80649,0 -1.39912,-0.6553 -1.39912,-1.54707c0,-0.8918 0.52526,-1.43005 1.39553,-1.43005c0.91901,0 1.39553,-0.53149 1.39553,-1.55651c0,-1.09413 0.54383,-1.79276 1.39553,-1.79276c0.80824,0 1.39553,0.70388 1.39553,1.67256c0,0.99234 0.67439,1.67671 1.65224,1.67671c0.87441,0 1.51095,0.64283 1.51095,1.52589c0,0.57757 0.29192,1.26744 0.63258,1.49491c0.1126,0.07519 0.47219,0.13799 0.79909,0.13955c0.35381,0.00169 0.80188,0.18136 1.10712,0.44391c1.25602,1.08038 0.01321,3.23993 -1.41286,2.45504zM41.21877,23.74677c-0.84139,-0.90313 -0.21411,-2.38383 1.00988,-2.38383c0.69107,0 1.40179,0.6793 1.40179,1.33982c0,0.4162 -0.33558,1.11052 -0.63258,1.30884c-0.42902,0.28646 -1.40016,0.14191 -1.77908,-0.26482zM19.85173,22.57885c-0.19846,-0.2523 -0.41653,-0.80704 -0.48461,-1.23276c-0.19814,-1.23912 -0.39557,-1.47171 -1.24921,-1.47171c-1.05934,0 -1.83984,-0.78328 -1.83984,-1.84639c0,-0.97217 -0.49579,-1.50288 -1.40399,-1.50288c-0.87438,0 -1.57314,-0.68037 -1.57314,-1.53174c0,-0.89573 0.45043,-1.44539 1.18445,-1.44539c0.90722,0 1.25914,0.36271 1.43572,1.47972c0.1975,1.24939 0.53175,1.61284 1.59333,1.73249c1.09055,0.12292 1.39974,0.45059 1.51023,1.60052c0.12637,1.31512 0.64974,1.78477 1.8395,1.65067c1.0571,-0.11915 1.36815,-0.4722 1.36815,-1.55288c0,-0.43259 0.05201,-0.92208 0.11558,-1.08774c0.14806,-0.38584 1.03411,-0.84565 1.62955,-0.84565c0.67216,0 1.04592,-0.4735 1.04592,-1.32502c0,-1.51808 0.99299,-2.39176 1.98192,-1.74379c0.84638,0.55457 1.01253,1.54245 0.39856,2.3697c-0.13237,0.17835 -0.64892,0.39977 -1.14789,0.49204c-1.04218,0.19273 -1.22578,0.39865 -1.22974,1.37926c-0.00327,0.81131 -0.40828,1.70651 -0.8485,1.87543c-0.16566,0.06357 -0.52462,0.11687 -0.79768,0.11843c-0.89297,0.00512 -1.33379,0.6151 -1.33379,1.84562c0,1.3839 -1.40198,2.04963 -2.19453,1.04207z" id="path3723 1 1" fill="none" stroke-width="0"></path><g id="svg3713 2" fill="#000000" stroke-width="1"><path d="M20.59013,34.32936c-0.48236,-0.51345 -0.53714,-1.53013 -0.11492,-2.13293c0.2052,-0.29297 0.47893,-0.41354 0.93881,-0.41354c0.94693,0 1.56259,-0.67681 1.56259,-1.71781c0,-1.1133 0.37876,-1.58175 1.40314,-1.73536c0.99996,-0.14995 1.38792,-0.604 1.38792,-1.62437c0,-0.90976 0.26627,-1.40389 0.88284,-1.63831c1.03167,-0.39224 1.90821,0.47699 1.90821,1.89227c0,0.6704 0.77056,1.28823 1.60669,1.28823c0.85742,0 1.37044,0.54784 1.37044,1.46347c0,0.95523 0.58047,1.69973 1.32524,1.69973c1.64124,0 2.4679,1.61982 1.38124,2.70648c-0.93956,0.93956 -2.05931,0.26807 -2.31776,-1.38991c-0.18129,-1.16302 -0.52219,-1.50264 -1.50828,-1.50264c-0.91993,0 -1.45574,-0.60062 -1.65385,-1.85389c-0.18009,-1.13921 -0.36983,-1.3026 -1.51717,-1.30645c-1.15869,-0.00389 -1.53914,0.31454 -1.58013,1.32252c-0.04767,1.17244 -0.04705,1.17027 -0.46294,1.61667c-0.24087,0.25855 -0.60153,0.40723 -0.98782,0.40723c-0.96683,0 -1.25227,0.33708 -1.40867,1.66354c-0.15184,1.28779 -0.46364,1.68573 -1.3208,1.68573c-0.27183,0 -0.67044,-0.19185 -0.89479,-0.43065zM17.6348,31.87229c-0.62162,-0.26137 -0.79851,-0.58452 -0.79851,-1.45875c0,-0.92866 -0.45042,-1.42171 -1.29877,-1.42171c-1.09425,0 -1.86443,-0.72513 -1.86443,-1.75537c0,-0.97367 -0.41734,-1.40783 -1.35329,-1.40783c-0.43952,0 -0.8505,-0.1529 -1.1855,-0.44106c-1.02691,-0.88331 -0.47317,-2.53606 0.84968,-2.53606c0.76387,0 1.26045,0.58728 1.40883,1.66615c0.15113,1.09888 0.57449,1.49705 1.59173,1.49705c0.89447,0 1.4796,0.61515 1.4796,1.55553c0,0.49813 0.13558,0.82981 0.47998,1.17421c0.42471,0.42471 0.57955,0.46633 1.34457,0.36148c1.06565,-0.14606 1.38513,-0.44736 1.44186,-1.35979c0.02421,-0.38942 0.05276,-0.8127 0.06344,-0.94063c0.03985,-0.47735 0.76337,-0.97687 1.41494,-0.97687c0.91901,0 1.39553,-0.53149 1.39553,-1.55651c0,-1.07772 0.54548,-1.79276 1.36763,-1.79276c0.96923,0 1.42343,-0.44411 1.42343,-1.3918c0,-1.14652 0.69118,-1.95747 1.66839,-1.95747c0.89718,0 1.15161,-0.31253 1.33108,-1.63503c0.16088,-1.18552 0.47372,-1.52817 1.39524,-1.52817c0.74429,0 1.37347,0.71705 1.37347,1.56529c0,0.91526 0.41753,1.34758 1.40942,1.45938c1.08614,0.12242 1.56524,0.58659 1.69925,1.6463c0.13795,1.09081 0.48491,1.43958 1.57615,1.58434c1.03376,0.13713 1.4555,0.5621 1.4555,1.46662c0,0.9079 -0.45731,1.39553 -1.30875,1.39553c-0.87329,0 -1.20963,-0.40662 -1.46441,-1.7704c-0.20157,-1.07896 -0.56486,-1.39279 -1.61227,-1.39279c-0.95709,0 -1.20701,-0.272 -1.40588,-1.53005c-0.20372,-1.28872 -0.50043,-1.54979 -1.70477,-1.50001c-1.20876,0.04997 -1.62136,0.47116 -1.62136,1.65515c0,1.01048 -0.47755,1.56099 -1.35413,1.56099c-1.02504,0 -1.43693,0.43214 -1.43693,1.50757c0,1.13234 -0.57334,1.8417 -1.48856,1.8417c-0.87975,0 -1.48856,0.71398 -1.48856,1.74571c0,0.67749 -0.09118,0.90399 -0.49027,1.21792c-0.27161,0.21365 -0.76483,0.38565 -1.10587,0.38565c-0.76022,0 -1.19492,0.54746 -1.19492,1.50487c0,0.74058 -0.51951,1.55614 -1.08555,1.70417c-0.19264,0.05037 -0.60078,-0.01375 -0.90699,-0.1425zM35.38055,31.21522c-0.3634,-0.28585 -0.51668,-0.61958 -0.61094,-1.33013c-0.15155,-1.14244 -0.58723,-1.63755 -1.44099,-1.63755c-0.94685,0 -1.56091,-0.58552 -1.71288,-1.63326c-0.19028,-1.31191 -0.33193,-1.4785 -1.37961,-1.62259c-1.56596,-0.21537 -2.21957,-1.61494 -1.22068,-2.61382c1.01145,-1.01145 2.33434,-0.11477 2.33434,1.58226c0,0.78182 0.37861,1.11826 1.44884,1.28744c1.12317,0.17755 1.51353,0.55631 1.52237,1.47713c0.00616,0.64271 0.28705,1.33185 0.6385,1.56652c0.1126,0.07519 0.63958,0.13799 1.17105,0.13955c1.18519,0.0035 1.54563,-0.39287 1.54563,-1.69968c0,-0.73002 0.08366,-0.94126 0.50364,-1.27161c0.9164,-0.72084 2.10135,-0.02413 2.10135,1.23554c0,0.86801 -0.68895,1.55253 -1.56259,1.55253c-0.82505,0 -1.22847,0.53576 -1.22847,1.63146c0,0.60593 -0.11267,0.91705 -0.45672,1.26109c-0.55678,0.55678 -1.01409,0.57757 -1.65284,0.07513zM4.85983,26.37334c-0.37816,-0.29746 -0.49027,-0.54966 -0.49027,-1.10292c0,-0.55326 0.11211,-0.80546 0.49027,-1.10292c0.6361,-0.50036 1.046,-0.48681 1.67638,0.05542c0.98985,0.85144 0.4806,2.53606 -0.76664,2.53606c-0.23071,0 -0.64009,-0.17354 -0.90974,-0.38565zM17.40401,25.93368c-0.52261,-0.28763 -0.72211,-0.69757 -0.74071,-1.522c-0.02051,-0.9089 -0.64438,-1.56017 -1.49453,-1.56017c-1.03067,0 -1.5117,-0.46884 -1.63023,-1.58894c-0.13059,-1.23403 -0.61617,-1.76033 -1.62414,-1.76033c-1.15833,0 -1.52778,0.35678 -1.62862,1.57278c-0.10242,1.235 -0.51509,1.77649 -1.35388,1.77649c-0.80649,0 -1.39912,-0.6553 -1.39912,-1.54707c0,-0.8918 0.52526,-1.43005 1.39553,-1.43005c0.91901,0 1.39553,-0.53149 1.39553,-1.55651c0,-1.09413 0.54383,-1.79276 1.39553,-1.79276c0.80824,0 1.39553,0.70388 1.39553,1.67256c0,0.99234 0.67439,1.67671 1.65224,1.67671c0.87441,0 1.51095,0.64283 1.51095,1.52589c0,0.57757 0.29192,1.26744 0.63258,1.49491c0.1126,0.07519 0.47219,0.13799 0.79909,0.13955c0.35381,0.00169 0.80188,0.18136 1.10712,0.44391c1.25602,1.08038 0.01321,3.23993 -1.41286,2.45504zM41.21877,23.74677c-0.84139,-0.90313 -0.21411,-2.38383 1.00988,-2.38383c0.69107,0 1.40179,0.6793 1.40179,1.33982c0,0.4162 -0.33558,1.11052 -0.63258,1.30884c-0.42902,0.28646 -1.40016,0.14191 -1.77908,-0.26482zM19.85173,22.57885c-0.19846,-0.2523 -0.41653,-0.80704 -0.48461,-1.23276c-0.19814,-1.23912 -0.39557,-1.47171 -1.24921,-1.47171c-1.05934,0 -1.83984,-0.78328 -1.83984,-1.84639c0,-0.97217 -0.49579,-1.50288 -1.40399,-1.50288c-0.87438,0 -1.57314,-0.68037 -1.57314,-1.53174c0,-0.89573 0.45043,-1.44539 1.18445,-1.44539c0.90722,0 1.25914,0.36271 1.43572,1.47972c0.1975,1.24939 0.53175,1.61284 1.59333,1.73249c1.09055,0.12292 1.39974,0.45059 1.51023,1.60052c0.12637,1.31512 0.64974,1.78477 1.8395,1.65067c1.0571,-0.11915 1.36815,-0.4722 1.36815,-1.55288c0,-0.43259 0.05201,-0.92208 0.11558,-1.08774c0.14806,-0.38584 1.03411,-0.84565 1.62955,-0.84565c0.67216,0 1.04592,-0.4735 1.04592,-1.32502c0,-1.51808 0.99299,-2.39176 1.98192,-1.74379c0.84638,0.55457 1.01253,1.54245 0.39856,2.3697c-0.13237,0.17835 -0.64892,0.39977 -1.14789,0.49204c-1.04218,0.19273 -1.22578,0.39865 -1.22974,1.37926c-0.00327,0.81131 -0.40828,1.70651 -0.8485,1.87543c-0.16566,0.06357 -0.52462,0.11687 -0.79768,0.11843c-0.89297,0.00512 -1.33379,0.6151 -1.33379,1.84562c0,1.3839 -1.40198,2.04963 -2.19453,1.04207z" id="path3723 1"></path></g><path d="M2,24c0,-12.15026 9.84974,-22 22,-22c12.15026,0 22,9.84974 22,22c0,12.15026 -9.84974,22 -22,22c-12.15026,0 -22,-9.84974 -22,-22z" id="base 1 1 1" fill="none" stroke-width="1"></path><g id="svg3713 1 1" fill="#000000" stroke-width="1" font-family="Roboto, sans-serif" font-weight="400" font-size="14" text-anchor="start"></g><rect x="2" y="2" width="44" height="22" fill="none" stroke-width="1"></rect><path d="M2,24v-22h44v22z" fill="none" stroke-width="1"></path><path d="M2,24v-22h44v22z" fill="none" stroke-width="1"></path><path d="M2,24v-22h44v22z" fill="none" stroke-width="1"></path><path d="M2,24v-22h44v22z" fill="none" stroke-width="1"></path></g></svg>