<?xml version="1.0" encoding="UTF-8" standalone="no"?>
<!-- Created with Inkscape (http://www.inkscape.org/) -->

<svg
   xmlns:dc="http://purl.org/dc/elements/1.1/"
   xmlns:cc="http://creativecommons.org/ns#"
   xmlns:rdf="http://www.w3.org/1999/02/22-rdf-syntax-ns#"
   xmlns:svg="http://www.w3.org/2000/svg"
   xmlns="http://www.w3.org/2000/svg"
   xmlns:sodipodi="http://sodipodi.sourceforge.net/DTD/sodipodi-0.dtd"
   xmlns:inkscape="http://www.inkscape.org/namespaces/inkscape"
   version="1.1"
   id="svg3713"
   width="252"
   height="159"
   viewBox="0 0 252 159"
   sodipodi:docname="sw.svg"
   inkscape:version="0.92.3 (2405546, 2018-03-11)">
  <metadata
     id="metadata3719">
    <rdf:RDF>
      <cc:Work
         rdf:about="">
        <dc:format>image/svg+xml</dc:format>
        <dc:type
           rdf:resource="http://purl.org/dc/dcmitype/StillImage" />
        <dc:title></dc:title>
      </cc:Work>
    </rdf:RDF>
  </metadata>
  <defs
     id="defs3717" />
  <sodipodi:namedview
     pagecolor="#ffffff"
     bordercolor="#666666"
     borderopacity="1"
     objecttolerance="10"
     gridtolerance="10"
     guidetolerance="10"
     inkscape:pageopacity="0"
     inkscape:pageshadow="2"
     inkscape:window-width="1920"
     inkscape:window-height="1017"
     id="namedview3715"
     showgrid="false"
     inkscape:zoom="3.7801306"
     inkscape:cx="107.7595"
     inkscape:cy="58.077548"
     inkscape:window-x="1912"
     inkscape:window-y="-8"
     inkscape:window-maximized="1"
     inkscape:current-layer="svg3713" />
  <path
     style="fill:#000000"
     d="m 106.17431,134.68555 c -2.59234,-2.75943 -2.88673,-8.22341 -0.61761,-11.46304 C 106.65953,121.648 108.1306,121 110.60216,121 115.69127,121 119,117.3626 119,111.76796 c 0,-5.98324 2.03559,-8.50079 7.54091,-9.32637 C 131.91499,101.6357 134,99.195484 134,93.711752 c 0,-4.889345 1.43103,-7.544931 4.74467,-8.804777 C 144.28916,82.798966 149,87.47046 149,95.076643 149,98.679592 153.14124,102 157.63486,102 c 4.60805,0 7.36514,2.94426 7.36514,7.86514 0,5.13371 3.11961,9.13486 7.12224,9.13486 8.82051,0 13.26327,8.70539 7.42321,14.54545 -5.04948,5.04949 -11.06736,1.44069 -12.45633,-7.46982 C 166.1148,119.82522 164.28273,118 158.98318,118 c -4.94397,0 -7.82357,-3.22791 -8.88831,-9.9634 -0.96784,-6.12248 -1.98756,-7.00058 -8.15374,-7.02129 -6.22713,-0.0209 -8.27182,1.69044 -8.4921,7.10764 -0.25622,6.30104 -0.25288,6.28939 -2.48799,8.68849 -1.29452,1.38951 -3.2328,2.18856 -5.30887,2.18856 -5.19602,0 -6.73006,1.81159 -7.57061,8.94036 -0.81605,6.92098 -2.49172,9.05964 -7.09838,9.05964 -1.4609,0 -3.60317,-1.03105 -4.80887,-2.31445 z M 90.291457,121.4805 C 86.950655,120.0758 86,118.33911 86,113.64072 86,108.64984 83.579312,106 79.020021,106 73.13919,106 69,102.10293 69,96.566094 69,91.33331 66.757085,89 61.727023,89 59.364917,89 57.156182,88.178247 55.355764,86.629592 49.836847,81.88242 52.812813,73 59.922223,73 c 4.105272,0 6.774051,3.156215 7.571504,8.954393 C 68.30597,87.860103 70.581209,90 76.048192,90 80.855371,90 84,93.306015 84,98.359906 c 0,2.677094 0.72866,4.459664 2.579564,6.310564 2.282499,2.2825 3.114669,2.50622 7.226153,1.94268 5.727118,-0.78499 7.444103,-2.40424 7.749003,-7.307924 C 101.68485,97.212352 101.83828,94.9375 101.89566,94.25 102.1098,91.684581 105.99827,89 109.5,89 114.43902,89 117,86.143611 117,80.634859 117,74.842868 119.93158,71 124.35007,71 129.55901,71 132,68.613242 132,63.520021 132,57.358255 135.71464,53 140.96645,53 c 4.82172,0 6.18913,-1.67965 7.15364,-8.787138 C 148.9847,37.84152 150.66603,36 155.61855,36 159.61861,36 163,39.853639 163,44.412352 c 0,4.91887 2.24391,7.242321 7.57467,7.843175 5.83725,0.657943 8.41207,3.152532 9.1323,8.847724 0.74136,5.862351 2.60605,7.736733 8.47071,8.514707 C 193.73343,70.354954 196,72.63883 196,77.5 c 0,4.879335 -2.45771,7.5 -7.03365,7.5 -4.69331,0 -6.50092,-2.185311 -7.87019,-9.514699 C 180.01285,69.686653 178.06041,68 172.43132,68 c -5.14369,0 -6.48685,-1.461797 -7.55565,-8.222982 -1.09485,-6.925996 -2.68945,-8.329054 -9.16198,-8.061502 C 149.21744,51.984048 147,54.247693 147,60.610784 147,66.041426 144.43349,69 139.72251,69 134.21363,69 132,71.322453 132,77.102159 132,83.187712 128.91869,87 124,87 c -4.72806,0 -8,3.837154 -8,9.381965 0,3.641045 -0.49001,4.858315 -2.63486,6.545455 C 111.90544,104.07562 109.25471,105 107.42185,105 103.3362,105 101,107.9422 101,113.08765 c 0,3.98013 -2.792002,8.36319 -5.83408,9.15871 -1.03528,0.27073 -3.228789,-0.0739 -4.874463,-0.76586 z m 95.371103,-3.53129 c -1.95301,-1.53624 -2.77682,-3.32982 -3.28339,-7.14853 C 181.5647,104.66088 179.22321,102 174.63486,102 c -5.08866,0 -8.38883,-3.146762 -9.20555,-8.777644 -1.02264,-7.050591 -1.78389,-7.945912 -7.41446,-8.720314 -8.41594,-1.157488 -11.92863,-8.679167 -6.5603,-14.047497 C 156.89039,65.018702 164,69.837732 164,78.958094 c 0,4.201759 2.03477,6.009847 7.78653,6.919078 6.03627,0.954206 8.1342,2.989798 8.18167,7.938569 0.0331,3.454129 1.5427,7.157759 3.4315,8.418949 0.60517,0.40408 3.43728,0.74158 6.2936,0.75 6.3696,0.0188 8.3067,-2.11139 8.3067,-9.134616 0,-3.923328 0.44964,-5.058603 2.70672,-6.834019 C 205.63176,83.142017 212,86.886391 212,93.656239 212,98.32119 208.29735,102 203.60216,102 199.1681,102 197,104.87933 197,110.76796 c 0,3.25646 -0.60554,4.92849 -2.45455,6.77749 -2.99231,2.99232 -5.45005,3.10403 -8.88289,0.40376 z M 21.634859,91.92742 C 19.602498,90.328765 19,88.973376 19,86 c 0,-2.973376 0.602498,-4.328765 2.634859,-5.92742 3.418622,-2.689089 5.621541,-2.616266 9.009377,0.297828 C 35.964013,84.946288 33.227119,94 26.524075,94 25.284178,94 23.084031,93.067339 21.634859,91.92742 Z m 67.41624,-2.362856 C 86.242448,88.018736 85.170254,85.81561 85.070285,81.384859 84.960074,76.500137 81.607199,73 77.038204,73 71.499056,73 68.913882,70.480304 68.27683,64.460539 67.574981,57.828484 64.965319,55 59.548192,55 53.322973,55 51.337432,56.917467 50.795487,63.452621 50.245072,70.089891 48.027247,73 43.519326,73 39.185009,73 36,69.478194 36,64.685549 36,59.892744 38.822905,57 43.5,57 48.439025,57 51,54.143611 51,48.634859 51,42.754653 53.92271,39 58.5,39 62.843712,39 66,42.782848 66,47.988836 66,53.321953 69.624376,57 74.879671,57 79.579029,57 83,60.454788 83,65.2006 c 0,3.104062 1.56889,6.81162 3.399704,8.034087 0.605163,0.404078 2.537702,0.741578 4.294532,0.75 1.901459,0.0091 4.309555,0.974669 5.95,2.385721 6.750224,5.806299 0.07102,17.412364 -7.593137,13.194156 z M 217.03896,77.811439 C 212.51705,72.957743 215.88826,65 222.46637,65 226.18038,65 230,68.650775 230,72.2006 c 0,2.236765 -1.80351,5.96828 -3.3997,7.034087 -2.30568,1.539543 -7.52488,0.762643 -9.56134,-1.423248 z M 102.20593,71.534671 c -1.06657,-1.35593 -2.238564,-4.33729 -2.604423,-6.625244 C 98.536626,58.250025 97.475591,57 92.887893,57 87.19465,57 83,52.790424 83,47.076923 83,41.852191 80.335485,39 75.454545,39 70.755375,39 67,35.343458 67,30.767961 67,25.954039 69.420733,23 73.365574,23 c 4.875657,0 6.767027,1.949333 7.715993,7.952456 1.06144,6.714629 2.857801,8.667891 8.563026,9.310952 5.860971,0.660616 7.522641,2.421626 8.116467,8.601699 0.679134,7.067874 3.49192,9.591912 9.88606,8.8712 C 113.32831,57.095955 115,55.198556 115,49.390658 c 0,-2.324896 0.27953,-4.955531 0.62118,-5.845856 C 116.41691,41.47116 121.17878,39 124.37891,39 127.9913,39 130,36.455273 130,31.878912 c 0,-8.158617 5.33662,-12.854043 10.65143,-9.371651 4.5487,2.980427 5.44166,8.289593 2.142,12.735473 -0.71139,0.958503 -3.4875,2.148474 -6.16914,2.644379 -5.60102,1.035776 -6.58774,2.142465 -6.60898,7.412547 -0.0176,4.360241 -2.19423,9.171284 -4.56011,10.079159 -0.89033,0.341649 -2.81947,0.628072 -4.28699,0.636494 C 116.36909,56.042855 114,59.321057 114,65.934259 c 0,7.437527 -7.53467,11.015364 -11.79407,5.600412 z"
     id="path3723"
     inkscape:connector-curvature="0" />
</svg>
